<svg width="97" height="256" viewBox="0 0 97 256" fill="none" xmlns="http://www.w3.org/2000/svg">
<path d="M34 252.5C29.7443 248.731 25.1263 245.126 21.1111 241.111C14.7818 234.782 11.3504 226.355 7.99999 218.222C2.92067 205.892 1.46557 193.591 1.1111 180.333C0.839934 170.192 1.41853 161.375 4.77777 151.722C8.26984 141.688 14.6145 133.433 20.7778 124.944C23.3403 121.415 26.7672 116.897 27.5 112.5" stroke="black" stroke-linecap="round" stroke-linejoin="round"/>
<path d="M30 97.5C25.6556 99.3619 22.0599 103.105 21.0278 107.75C19.8255 113.16 35.0998 112.5 37.6389 112.5C42.2611 112.5 44.4945 107.22 42.2778 103.167C39.7827 98.6042 34.5378 96.726 29.5833 96.5278C27.3446 96.4382 26.0879 96.1482 25.5 98.5" stroke="black" stroke-linecap="round" stroke-linejoin="round"/>
<path d="M22 101.5C17.6891 91.7607 9.31782 84.8032 6.22222 74.25C3.99819 66.6681 3.75438 58.1286 4.27777 50.2778C4.56022 46.0411 4.78729 41.2717 6.55555 37.3333C9.10247 31.6607 13.9968 26.7211 17.8889 21.9444C18.9875 20.5962 20.5752 19.1992 21 17.5" stroke="black" stroke-linecap="round" stroke-linejoin="round"/>
<path d="M38 0.5C31.0055 1.9307 23.8615 2.45338 16.8611 3.77778C14.909 4.1471 10.7739 6.38455 13 8.88889C15.0131 11.1537 21.8568 11.8225 24.5556 12.4722C33.2372 14.5622 42.0198 15 50.9167 15C61.103 15 71.2112 14.5666 81.2778 12.8889C84.8015 12.3016 92.6916 13.0036 95.2222 9.75C96.8775 7.62176 95.1404 6.37346 93 5.61111C82.9318 2.02518 70.5308 3.47938 60.0278 2.75C51.1866 2.13603 41.8304 3.36926 33 4" stroke="black" stroke-linecap="round" stroke-linejoin="round"/>
<path d="M74.5 255C83.8226 238.506 87.4283 219.651 89.3611 201C90.6179 188.872 90.9441 174.606 86.8889 162.778C85.2146 157.894 82.8172 153.634 80.5 149C79.1311 146.262 78.3359 143.172 77 140.5" stroke="black" stroke-linecap="round" stroke-linejoin="round"/>
<path d="M62 124C59.8775 126.802 57.6114 131.482 61.3889 134C63.0166 135.085 65.3736 135.5 67.3333 135.5C69.7097 135.5 74.8341 135.805 77 134.722C79.0134 133.716 79.5 130.988 79.5 129C79.5 125.242 77.2213 125.034 73.9722 124C71.0567 123.072 68.8148 122.862 65.9445 123.5C64.2427 123.878 60.366 123.268 59.5 125" stroke="black" stroke-linecap="round" stroke-linejoin="round"/>
<path d="M74 147C74.508 144.269 75.2751 141.316 75.4722 138.556C75.5633 137.28 75.7099 136.966 77 137.611C78.7688 138.496 78.1869 139.5 80.5 139.5" stroke="black" stroke-linecap="round" stroke-linejoin="round"/>
<path d="M81 129C83.3853 125.422 85.6808 121.947 87.4444 118C90.4122 111.358 91.3708 104.211 92.75 97.1111C94.2284 89.5002 95.6552 81.7114 95.9722 73.9444C96.0585 71.8308 96.0459 69.8247 95.5 67.7778C94.1229 62.6135 88.9681 61 84 61" stroke="black" stroke-linecap="round" stroke-linejoin="round"/>
<path d="M83.5 65C82.8245 63.2269 81.4991 61.3941 82.7778 59.75C83.4683 58.8621 84.5487 58.6829 85.5 59" stroke="black" stroke-linecap="round" stroke-linejoin="round"/>
<path d="M62 49C53.196 49 44.4356 48 35.6111 48C32.444 48 29.5643 49.0934 26.5 49.75C24.9617 50.0796 22.2109 50.2669 21.1111 51.6111C20.2835 52.6227 20.4555 54.5978 20.5 55.7778C20.6335 59.3148 24.9039 61.0331 27.8056 61.7222C40.5884 64.7581 53.8953 64.6305 66.9445 64.5C71.5575 64.4539 75.6637 64.1426 79.25 61.5C80.946 60.2503 82.4968 58.0356 81 56.1111C79.3455 53.9839 75.0242 53.3739 72.6667 52.7222C68.1067 51.4617 63.3828 51.5576 58.75 50.7222C52.1198 49.5266 46.2318 49.3268 39.5 50" stroke="black" stroke-linecap="round" stroke-linejoin="round"/>
</svg>
