<svg width="279" height="233" viewBox="0 0 279 233" fill="none" xmlns="http://www.w3.org/2000/svg">
<path d="M105 207C86.9838 204.998 68.6944 205.161 50.6111 206C39.2442 206.527 27.75 207.628 16.5556 209.722C11.8341 210.606 5.28083 211.517 1.88891 215.444C-2.55773 220.593 8.86397 224.517 11.6111 225.278C25.5689 229.143 40.9081 229.748 55.2778 230.611C77.4368 231.942 99.638 232.3 121.833 231.944C131.962 231.782 142.061 230.895 152.167 230.25C157.517 229.908 163.406 229.753 168.472 227.75C173.258 225.858 171.194 219.891 168.222 217.556C164.284 214.461 160.25 212.821 155.444 211.556C139.365 207.321 122.621 206.031 106.083 204.889C79.4597 203.05 52.6605 203.635 26 204" stroke="black" stroke-linecap="round" stroke-linejoin="round"/>
<path d="M160.5 212C163.127 194.597 159.378 175.673 146.972 162.667C141.519 156.95 135.183 152.433 128.194 148.778C126.807 148.052 125.602 147.602 124.5 146.5" stroke="black" stroke-linecap="round" stroke-linejoin="round"/>
<path d="M119.5 150C117.574 145.88 115.241 142.085 113.056 138.111C112.833 137.706 110.519 134.556 112.056 134.556C116.27 134.556 120.467 135.661 124.611 136.278C126.94 136.624 128.891 136.945 131 138" stroke="black" stroke-linecap="round" stroke-linejoin="round"/>
<path d="M112 3.50001C98.1249 3.50001 79.5022 2.4422 72.3334 17.0556C65.6139 30.753 120.54 30.0309 126.444 30C134.481 29.9579 140.924 29.6238 146.778 23.9722C149.373 21.4668 153.59 16.4971 152 12.6111C150.932 10.001 147.443 9.20603 145.028 8.47223C137.604 6.21681 129.905 4.27578 122.194 3.33334C111.653 2.04499 101.667 4.45837 91.5 7.00001" stroke="black" stroke-linecap="round" stroke-linejoin="round"/>
<path d="M274 116.5C276.546 109.34 273.728 102.025 269.222 96.3333C263.948 89.6712 256.778 84.6997 249.333 80.75C238.116 74.7991 226.248 69.5069 214.444 64.8333C193.229 56.4332 170.749 49.3437 148 46.5" stroke="black" stroke-linecap="round" stroke-linejoin="round"/>
<path d="M148 54C145.789 49.7525 142.863 46.1329 140.444 42.0556C139.837 41.0318 139.118 40.1582 140.25 39.2778C141.639 38.1977 145.334 39.1248 146.861 39.25C150.542 39.5517 154.306 40 158 40" stroke="black" stroke-linecap="round" stroke-linejoin="round"/>
<path d="M174.5 5.99997C167.867 4.99871 154.949 3.75534 154.028 12.9722C152.904 24.2092 167.48 24.98 175.333 25.6111C183.246 26.2469 192.213 27.1745 199.778 24.1944C203.209 22.8426 209.884 20.8237 211.25 17C211.931 15.0933 210.303 13.4304 208.833 12.4722C206.549 10.9825 204.032 10.1022 201.417 9.38886C193.029 7.10143 184.497 5.0123 175.944 3.44441C170.002 2.35495 163.076 1.5627 157.028 2.24997C155.214 2.45605 153.319 2.99997 151.5 2.99997" stroke="black" stroke-linecap="round" stroke-linejoin="round"/>
<path d="M237.5 5.99999C230.163 6.13586 215.937 5.51392 211.722 13.2778C204.162 27.2044 231.739 28.3458 238.528 28.7778C249.932 29.5035 262.825 31.2237 274.056 28.3889C278.586 27.2453 278.885 22.4785 278.222 18.5C276.865 10.3542 263.343 4.23462 256.222 2.49999C248.116 0.525431 235.585 -0.551218 228 3.99999" stroke="black" stroke-linecap="round" stroke-linejoin="round"/>
<path d="M78.5 111.5C68.4993 110.865 57.7852 109.93 48 112.556C39.2725 114.897 32.1264 118.266 24.8889 123.611C22.2099 125.589 20.8399 128.506 23.5556 131.028C27.1362 134.353 33.1097 135.52 37.7222 136.417C49.4667 138.7 61.6824 139.099 73.6111 139.389C80.5127 139.557 90.1552 140.845 95.5278 135.472C98.3637 132.636 99.0001 127.684 98.3889 123.833C98.1088 122.069 97.2211 120.079 95.7222 119.056C90.2554 115.322 83.1067 113.307 76.8056 111.583C70.3762 109.825 63.7425 108.235 57.1389 107.306C46.7416 105.842 36.4031 106.77 26 107.5" stroke="black" stroke-linecap="round" stroke-linejoin="round"/>
</svg>
